PathFileType	4	(X/Y/Z)	D:\MotionData\NordSprintingStudy\Test 2\Edited\COP_Left_Board_FP2000002.trc
DataRate	CameraRate	NumFrames	NumMarkers	Units	OrigDataRate	OrigDataStartFrame	OrigNumFrames
200.00	200.00	     54	5	mm	200.00	6349	     12696
Frame#	Time	M1			M2			M3			M4			M5			
		X1	Y1	Z1	X2	Y2	Z2	X3	Y3	Z3	X4	Y4	Z4	X5	Y5	Z5	

6349	31.740	820.68951	587.10986	495.65811	518.03668	511.26398	420.17035	475.67706	485.00418	614.59436	393.23279	430.81415	1001.96283	696.06787	507.87662	1077.44849	
6350	31.745	820.40845	587.40521	495.77994	517.83331	511.55960	419.98257	475.23831	485.68619	614.40710	392.14874	432.17569	1001.75824	694.97150	509.09064	1077.51379	
6351	31.750	820.11761	587.65137	495.85785	517.65143	511.89743	419.81317	474.74387	486.38330	614.18903	391.12299	433.49686	1001.56006	693.92145	510.32089	1077.55615	
6352	31.755	819.83551	587.92340	495.97388	516.73352	512.46552	419.48413	474.22076	487.11069	614.00342	390.17804	434.88260	1001.31458	692.87158	511.55121	1077.62073	
6353	31.760	819.56854	588.17767	496.08960	516.75800	512.87225	419.37091	474.03735	487.76221	613.68213	389.10138	436.26990	1001.19769	691.80615	512.78198	1077.68152	
6354	31.765	819.30554	588.44360	496.21039	516.47284	513.22015	419.26401	473.26688	488.52997	613.67487	388.15103	437.60330	1001.01819	690.76880	514.03119	1077.77185	
6355	31.770	819.01086	588.72626	496.32535	516.21289	513.60901	419.09103	472.77438	489.21906	613.51056	387.13513	438.94412	1000.85614	689.75476	515.29413	1077.82544	
6356	31.775	818.70374	589.02380	496.48352	515.90436	514.00299	419.03986	472.22614	489.93680	613.45343	386.09439	440.37653	1000.68396	688.74133	516.56598	1077.94922	
6357	31.780	818.38538	589.30817	496.63223	515.57355	514.36591	418.98306	471.70074	490.68948	613.38501	385.07269	441.71051	1000.61377	687.73248	517.83978	1078.04724	
6358	31.785	818.10883	589.58722	496.74088	515.30103	514.76300	418.88269	471.21982	491.42188	613.24347	384.05887	443.14041	1000.52014	686.72699	519.13196	1078.15137	
6359	31.790	817.80750	589.87543	496.89200	514.65259	515.11096	418.87234	470.70920	492.13803	613.16229	383.16129	444.50244	1000.38550	685.75604	520.41943	1078.29871	
6360	31.795	817.53656	590.14874	497.01111	514.73309	515.56195	418.79764	470.42352	492.83539	612.97913	382.12048	445.90912	1000.31714	684.80103	521.71210	1078.38367	
6361	31.800	817.29810	590.39423	497.13000	514.43286	515.99298	418.75888	469.66714	493.62070	613.04108	381.20966	447.37601	1000.15253	683.84564	522.96692	1078.51990	
6362	31.805	817.06342	590.62726	497.27957	514.15546	516.42029	418.73361	469.18924	494.38266	612.97174	380.27884	448.82458	1000.11609	682.94525	524.26294	1078.60217	
6363	31.810	816.81940	590.87030	497.40518	513.86841	516.84277	418.66275	468.70300	495.16293	612.95148	379.39828	450.30362	999.98322	681.78729	525.63324	1078.80920	
6364	31.815	816.58771	591.12836	497.49884	513.64435	517.29614	418.59641	468.23807	495.94510	612.85980	378.52383	451.77048	999.91901	680.95746	526.93896	1078.85046	
6365	31.820	816.35699	591.37665	497.58859	513.14154	517.76233	418.49255	467.77258	496.74249	612.80206	377.72437	453.29303	999.75702	680.19122	528.18408	1078.90344	
6366	31.825	816.11932	591.62189	497.67270	513.17242	518.15802	418.49908	467.30255	497.54102	612.74780	376.90594	454.74377	999.66321	679.41595	529.46411	1078.91626	
6367	31.830	815.93732	591.86816	497.70114	512.99054	518.66089	418.40320	467.02454	498.36975	612.56354	376.16458	456.14603	999.42218	678.68713	530.72266	1078.94287	
6368	31.835	815.78857	592.11078	497.76108	512.89014	519.07983	418.22870	466.62283	499.18210	612.48199	375.32874	457.71649	999.41675	677.95117	532.04523	1078.93018	
6369	31.840	815.62286	592.33447	497.78732	512.64905	519.53308	418.17487	466.27765	499.99512	612.34808	374.60236	459.25815	999.28729	677.25775	533.31854	1078.96436	
6370	31.845	815.46057	592.55878	497.85681	512.46808	520.03357	418.11725	465.94540	500.80850	612.23151	373.83536	460.80267	999.14459	676.56952	534.61615	1078.94421	
6371	31.850	815.36267	592.78113	497.83594	512.38348	520.46381	417.93097	465.64697	501.65530	612.07581	373.20523	462.38599	999.03369	675.92633	535.89954	1078.95056	
6372	31.855	815.25171	593.02917	497.86734	512.31854	520.94751	417.79532	465.49704	502.42841	611.89447	372.59869	463.89847	998.82922	675.25024	537.24396	1078.94714	
6373	31.860	815.14899	593.29675	497.86688	512.20892	521.42273	417.64740	465.07516	503.31464	611.78632	371.94675	465.48404	998.73138	674.62640	538.55438	1078.89941	
6374	31.865	815.02185	593.54620	497.87888	512.12610	521.87177	417.49976	464.77899	504.14224	611.70636	371.31848	467.02469	998.51538	674.02325	539.91473	1078.89551	
6375	31.870	814.90527	593.81958	497.92014	511.91870	522.32050	417.45319	464.46442	504.98477	611.59802	370.69144	468.59616	998.42206	673.40833	541.28595	1078.86401	
6376	31.875	814.80994	594.09833	497.90475	511.90088	522.81244	417.24533	464.27573	505.82001	611.39972	370.01785	470.18814	998.36218	672.78320	542.67151	1078.83826	
6377	31.880	814.66833	594.37177	497.92151	511.39453	523.22754	417.10669	463.92416	506.68896	611.36133	369.54568	471.77988	998.17468	672.19342	544.03979	1078.85266	
6378	31.885	814.53119	594.65503	497.94791	511.36588	523.74164	416.94507	463.64581	507.50092	611.32977	368.96872	473.39157	998.04474	671.65924	545.47363	1078.80139	
6379	31.890	814.39514	594.94788	497.96387	511.47058	524.22974	417.03583	463.60455	508.29877	611.06128	368.41620	474.97946	998.00073	671.08997	546.89502	1078.85022	
6380	31.895	814.22333	595.23700	498.03326	511.39551	524.68231	416.93890	463.25854	509.15479	611.07831	367.75803	476.60010	998.00854	670.53290	548.32806	1078.85535	
6381	31.900	814.10083	595.54822	498.04947	511.20490	525.13837	416.94208	462.79858	510.04071	611.12891	367.19159	478.14728	997.95050	670.01605	549.75385	1078.90039	
6382	31.905	813.96649	595.84094	498.10318	511.07739	525.59711	416.90649	462.48071	510.88571	611.16675	366.59857	479.74384	997.97089	669.47266	551.22186	1078.97583	
6383	31.910	813.81409	596.17822	498.16025	510.87161	526.03027	416.91632	462.26151	511.68546	611.09631	366.07037	481.36880	997.99713	668.92755	552.71167	1079.05029	
6384	31.915	813.66888	596.50348	498.22238	510.41840	526.44257	416.85364	461.93579	512.50763	611.12457	365.57202	483.00867	998.00018	668.42303	554.20166	1079.08716	
6385	31.920	813.54230	596.83624	498.30356	510.18927	526.84656	416.92569	461.59924	513.34375	611.16229	365.16312	484.47327	997.91455	667.96387	555.69751	1079.16589	
6386	31.925	813.37256	597.19037	498.40775	510.26691	527.30402	417.09824	461.28073	514.12177	611.28693	364.53729	486.15717	998.12323	667.48749	557.24072	1079.26160	
6387	31.930	813.22784	597.56561	498.46683	510.08881	527.70587	417.11621	461.23639	514.89734	611.20203	364.05237	487.72830	998.18549	667.01807	558.82214	1079.30042	
6388	31.935	813.08850	597.96509	498.51730	509.87146	528.09003	417.23148	460.95172	515.66809	611.25403	363.57321	489.30136	998.27966	666.56158	560.40845	1079.38831	
6389	31.940	812.98169	598.37238	498.55774	509.79480	528.46417	417.28519	460.62790	516.48297	611.34521	363.07004	490.86862	998.36340	666.20294	561.98242	1079.41968	
6390	31.945	812.86621	598.78088	498.58569	509.65347	528.83081	417.32211	460.35654	517.23444	611.40466	362.75009	492.40500	998.37189	665.77557	563.60382	1079.51880	
6391	31.950	812.77496	599.20752	498.59268	509.30505	529.23090	417.21561	460.17578	518.03668	611.39008	362.33060	494.00427	998.42151	665.41516	565.24072	1079.48914	
6392	31.955	812.66028	599.64270	498.60873	509.07266	529.38434	417.33997	459.96155	518.76929	611.47009	361.91827	495.54141	998.43335	665.03918	566.86224	1079.53149	
6393	31.960	812.54559	600.07086	498.57587	509.04349	529.75946	417.31122	459.81833	519.53839	611.52148	361.65295	497.15402	998.46515	664.74731	568.50140	1079.48706	
6394	31.965	812.46051	600.49261	498.53986	509.29608	530.24915	417.39227	459.70126	520.31940	611.49115	361.40979	498.78033	998.43304	664.47717	570.12201	1079.48901	
6395	31.970	812.41840	600.89569	498.52597	509.23013	530.69672	417.42130	459.50354	521.14941	611.57153	361.13815	500.34253	998.44702	664.22284	571.73279	1079.42273	
6396	31.975	812.42773	601.30243	498.45871	509.21127	531.04871	417.39984	459.53922	521.93951	611.42230	360.88217	502.00839	998.48779	663.93945	573.34473	1079.38013	
6397	31.980	812.42468	601.70898	498.40103	509.20093	531.47021	417.37668	459.53085	522.70563	611.39209	360.74509	503.62845	998.43597	663.74237	574.96881	1079.37769	
6398	31.985	812.42749	602.11554	498.33682	509.24945	531.87823	417.30527	459.36847	523.59406	611.41443	360.53247	505.21988	998.43854	663.63599	576.56659	1079.29102	
6399	31.990	812.44092	602.49896	498.26065	509.21396	532.27930	417.33163	459.32495	524.38770	611.40137	360.44434	506.86420	998.35162	663.43976	578.18073	1079.21167	
6400	31.995	812.43915	602.87634	498.14780	509.27451	532.70129	417.24319	459.28186	525.17596	611.43420	360.73068	508.67688	998.55280	663.37122	579.80170	1079.12292	
6401	32.000	812.44244	603.27704	498.07147	509.24594	533.13116	417.26385	459.24689	526.02588	611.42377	360.58051	510.30191	998.49365	663.25885	581.40106	1079.07520	
6402	32.005	812.46338	603.65424	497.96567	509.29022	533.55743	417.22812	459.20187	526.87354	611.48303	360.43094	511.91537	998.50732	663.16241	582.98907	1078.93896	
